<?xml version="1.0" encoding="UTF-8" standalone="no"?>
<!-- Created with Inkscape (http://www.inkscape.org/) -->

<svg
   width="63.495831mm"
   height="59.819004mm"
   viewBox="0 0 63.495831 59.819004"
   version="1.1"
   id="svg5"
   sodipodi:docname="drawing.svg"
   inkscape:version="1.1.2 (b8e25be833, 2022-02-05)"
   xmlns:inkscape="http://www.inkscape.org/namespaces/inkscape"
   xmlns:sodipodi="http://sodipodi.sourceforge.net/DTD/sodipodi-0.dtd"
   xmlns="http://www.w3.org/2000/svg"
   xmlns:svg="http://www.w3.org/2000/svg">
  <sodipodi:namedview
     id="namedview7"
     pagecolor="#ffffff"
     bordercolor="#999999"
     borderopacity="1"
     inkscape:pageshadow="0"
     inkscape:pageopacity="0"
     inkscape:pagecheckerboard="0"
     inkscape:document-units="mm"
     showgrid="false"
     inkscape:zoom="1.5518659"
     inkscape:cx="117.60037"
     inkscape:cy="192.0269"
     inkscape:window-width="1920"
     inkscape:window-height="1057"
     inkscape:window-x="-8"
     inkscape:window-y="-8"
     inkscape:window-maximized="1"
     inkscape:current-layer="layer1" />
  <defs
     id="defs2">
    <marker
       style="overflow:visible"
       id="Tail"
       refX="0"
       refY="0"
       orient="auto"
       inkscape:stockid="Tail"
       inkscape:isstock="true">
      <g
         transform="scale(-1.2)"
         id="g2257">
        <path
           style="fill:none;fill-rule:evenodd;stroke:context-stroke;stroke-width:0.8;stroke-linecap:round"
           d="M -3.8048674,-3.9585227 0.54352094,0"
           id="path2245" />
        <path
           style="fill:none;fill-rule:evenodd;stroke:context-stroke;stroke-width:0.8;stroke-linecap:round"
           d="M -1.2866832,-3.9585227 3.0617053,0"
           id="path2247" />
        <path
           style="fill:none;fill-rule:evenodd;stroke:context-stroke;stroke-width:0.8;stroke-linecap:round"
           d="M 1.3053582,-3.9585227 5.6537466,0"
           id="path2249" />
        <path
           style="fill:none;fill-rule:evenodd;stroke:context-stroke;stroke-width:0.8;stroke-linecap:round"
           d="M -3.8048674,4.1775838 0.54352094,0.21974226"
           id="path2251" />
        <path
           style="fill:none;fill-rule:evenodd;stroke:context-stroke;stroke-width:0.8;stroke-linecap:round"
           d="M -1.2866832,4.1775838 3.0617053,0.21974226"
           id="path2253" />
        <path
           style="fill:none;fill-rule:evenodd;stroke:context-stroke;stroke-width:0.8;stroke-linecap:round"
           d="M 1.3053582,4.1775838 5.6537466,0.21974226"
           id="path2255" />
      </g>
    </marker>
    <marker
       style="overflow:visible"
       id="Arrow1Lstart"
       refX="0"
       refY="0"
       orient="auto"
       inkscape:stockid="Arrow1Lstart"
       inkscape:isstock="true">
      <path
         transform="matrix(0.8,0,0,0.8,10,0)"
         style="fill:context-stroke;fill-rule:evenodd;stroke:context-stroke;stroke-width:1pt"
         d="M 0,0 5,-5 -12.5,0 5,5 Z"
         id="path2209" />
    </marker>
  </defs>
  <g
     inkscape:label="Layer 1"
     inkscape:groupmode="layer"
     id="layer1"
     transform="translate(-8.698152,-6.3163501)">
    <path
       id="path1965-18-6-8"
       style="fill:#ffffff;fill-opacity:0;fill-rule:evenodd;stroke:#000000;stroke-width:2.60877;stop-color:#000000"
       d="m 61.591621,29.668721 c -3.091503,0.443462 -6.026589,1.546854 -8.998636,2.506512 -0.371415,0.704019 -0.828425,1.374671 -1.383881,1.998669 -2.951126,3.364113 -5.680378,7.311169 -9.913735,9.144152 -1.350104,0.555054 -2.727217,0.412692 -3.934832,-0.164561 -0.03701,0.285274 -0.06327,0.571815 -0.07715,0.858944 -0.449887,3.119315 1.4916,6.82563 4.91878,6.984344 4.611372,0.12785 8.753594,-2.296203 12.849963,-4.097924 4.373712,-1.885957 6.529316,-6.457607 7.109841,-10.945054 -0.353162,-1.926184 2.475318,-5.951675 -0.57035,-6.285082 z M 50.648746,15.699047 c -0.210581,-0.0026 -0.449249,0.03852 -0.72124,0.130868 -2.435182,1.5913 -4.50513,3.644666 -6.626411,5.6366 -0.01502,1.219453 -0.235702,2.444452 -0.712938,3.645259 -1.622554,4.170582 -2.837254,8.813854 -6.188393,11.984187 -0.802733,0.731673 -1.751667,1.10568 -2.733577,1.196366 0.08698,0.27405 0.183785,0.54464 0.292499,0.8106 0.910567,3.017183 4.236516,5.555797 7.409667,4.251256 4.233357,-1.832982 6.962609,-5.780039 9.913735,-9.144155 3.166895,-3.557668 3.188807,-8.612327 1.818479,-12.924678 -1.02779,-1.446792 -0.416212,-5.560784 -2.451821,-5.586303 z m -8.096874,9.140094 c -1.622554,4.170581 -2.837421,8.813589 -6.18856,11.983922 -2.535606,2.31115 -6.529251,1.063145 -8.416843,-1.460648 -3.359059,-3.700266 -4.086716,-9.8046 -0.818935,-13.801819 3.214123,-4.15502 4.728452,-9.342343 7.864948,-13.5293688 2.389375,-1.9178648 3.235809,2.9288588 4.847552,4.0411508 2.762601,3.583597 4.470955,8.340511 2.711838,12.766763 z m 13.545201,21.44708 c -0.41913,0.260877 -0.861704,0.495865 -1.331142,0.698288 -4.096372,1.801723 -8.238103,4.225772 -12.849476,4.097924 -1.168192,-0.0541 -2.163303,-0.520699 -2.950392,-1.235431 -0.182301,0.279451 -0.352047,0.566891 -0.507355,0.861871 -1.725998,2.636943 -1.532551,6.81652 1.506446,8.408757 4.125294,2.064728 8.903335,1.618161 13.377344,1.71642 4.760974,0.139159 8.646954,-3.092848 11.069573,-6.914516 0.49397,-1.89497 4.758712,-4.348073 2.1393,-5.937403 -3.388502,-1.025432 -6.952846,-1.19713 -10.454298,-1.69591 z M 23.231922,35.079291 a 13.229215,13.229215 0 0 0 -3.693602,0.529332 6.6146068,6.6146078 0 0 1 1.41562,4.07595 6.6146068,6.6146078 0 0 1 -6.614205,6.614692 6.6146068,6.6146078 0 0 1 -3.915784,-1.286217 13.229215,13.229215 0 0 0 -0.421413,3.295138 A 13.229215,13.229215 0 0 0 23.231922,61.537569 13.229215,13.229215 0 0 0 36.461305,48.308186 13.229215,13.229215 0 0 0 23.231922,35.079291 Z" />
  </g>
</svg>
